<?xml version="1.0" encoding="UTF-8"?>
<svg id="Layer_1" data-name="Layer 1" xmlns="http://www.w3.org/2000/svg" viewBox="0 0 106.36 78.21">
  <defs>
    <style>
      .cls-1 {
        fill: #fbb615;
      }

      .cls-1, .cls-2, .cls-3, .cls-4 {
        stroke-width: 0px;
      }

      .cls-2 {
        fill: #61c3aa;
      }

      .cls-3 {
        fill: #ed1c80;
      }

      .cls-4 {
        fill: #272362;
      }
    </style>
  </defs>
  <path className="cls-3" d="M27.42,49.69c4.17,2.72,8.02,6.22,12.55,8.02,14.39,5.71,27.33,2.58,39-7.79,4.74,3.64,9.09,7.21,13.44,10.79-7.54,9.04-17.36,14.31-28.73,16.42-19.29,3.59-35.89-1.73-49.3-16.44,4.43-3.88,8.73-7.44,13.04-11Z"/>
  <path className="cls-1" d="M92.61,60.6c-4.55-3.47-8.9-7.05-13.44-10.77,5.58-6.9,9.52-14.51,9.41-23.57-.05-4.32-.99-8.64-1.69-12.94-.74-4.57,1.51-8.59,5.85-10.08,4.17-1.43,8.95.4,10.63,4.65,1.31,3.31,2.21,6.9,2.6,10.44,1.74,15.92-2.41,30.09-13.36,42.26Z"/>
  <path className="cls-2" d="M27.33,49.49c-4.22,3.76-8.52,7.32-13.03,11C5.84,52.54,1.88,42.43.42,31.21c-.93-7.13-.3-14.17,1.78-21.08C3.86,4.61,8.17,1.74,12.94,3.01c5.34,1.42,7.84,5.89,6.33,11.76-2.89,11.22-1.53,21.67,5.35,31.18.83,1.15,1.75,2.23,2.71,3.54Z"/>
  <path className="cls-4" d="M39.79,18.64q.08-6.27-5.96-8.1c-2.13-.65-4.26-1.33-6.39-2l-.08-.94c.86-.46,1.68-1.08,2.6-1.35,6.69-1.99,13.38-4.02,20.14-5.8,1.83-.48,3.99-.62,5.79-.15,7.07,1.85,14.06,4,21.07,6.09.75.22,1.41.74,2.12,1.13.01.32.03.63.04.95-2.29.74-4.56,1.53-6.86,2.2-6.11,1.79-5.54.64-5.8,7.74-2.62,1.6-5.01,2.89-7.38,4.21-3.71,2.08-7.48,1.99-11.23.21-2.73-1.3-5.38-2.78-8.06-4.18Z"/>
  <path className="cls-1" d="M39.66,18.85c2.81,1.19,5.45,2.67,8.18,3.97,3.74,1.78,7.52,1.87,11.23-.21,2.37-1.33,4.76-2.61,7.39-3.94,5.97,9.25,3.64,19.91-5.12,24.63-6.75,3.63-14.98,2.35-20.16-3.13-5.58-5.89-6.18-13.65-1.51-21.31Z"/>
</svg>